<?xml version="1.0" standalone="no"?>
<!DOCTYPE svg PUBLIC "-//W3C//DTD SVG 20010904//EN"
 "http://www.w3.org/TR/2001/REC-SVG-20010904/DTD/svg10.dtd">
<svg version="1.0" xmlns="http://www.w3.org/2000/svg"
 width="1665.000000pt" height="1063.000000pt" viewBox="0 0 1665.000000 1063.000000"
 preserveAspectRatio="xMidYMid meet">

<g transform="translate(0.000000,1063.000000) scale(0.100000,-0.100000)"
fill="#ff3c00" stroke="none">
<path d="M5350 10319 c-801 -42 -1530 -362 -2086 -914 -310 -308 -492 -559
-682 -940 -151 -303 -251 -623 -301 -960 -19 -132 -30 -211 -31 -227 0 -4 -60
-37 -132 -74 -177 -88 -345 -190 -483 -294 -157 -117 -220 -173 -368 -323
-653 -664 -1010 -1559 -992 -2487 20 -991 410 -1906 1110 -2605 564 -564 1273
-920 2043 -1026 133 -19 225 -23 607 -29 563 -8 8994 -4 9055 4 25 4 106 14
180 22 743 85 1474 442 2049 999 623 604 1016 1410 1118 2290 23 203 23 616 0
809 -63 517 -240 1016 -513 1446 -340 535 -795 947 -1325 1202 l-117 56 -6 54
c-47 379 -109 632 -228 928 -235 580 -651 1113 -1148 1470 -444 319 -931 508
-1498 582 l-167 22 -2975 1 c-1636 1 -3036 -2 -3110 -6z m5645 -1413 c592 -14
1088 -227 1505 -645 427 -428 651 -976 653 -1601 1 -473 -134 -876 -427 -1270
-83 -113 -182 -214 -330 -340 -224 -189 -453 -316 -746 -413 -117 -39 -181
-52 -480 -98 -268 -41 -337 -68 -435 -166 -107 -109 -155 -211 -162 -354 -7
-115 6 -178 53 -278 69 -142 229 -264 394 -300 41 -9 336 -12 1150 -11 1264 1
1127 -12 1255 114 131 128 194 265 203 443 4 89 -6 190 -24 238 -3 6 37 61 88
121 223 261 392 524 523 813 62 135 157 386 170 448 3 18 10 35 14 38 14 8
185 -168 258 -266 218 -292 338 -561 405 -909 20 -101 23 -147 23 -370 -1
-219 -4 -273 -23 -383 -67 -388 -225 -744 -461 -1039 -275 -345 -681 -622
-1085 -739 l-99 -29 -1519 0 c-1068 0 -1541 3 -1591 11 -267 42 -602 249 -819
508 -260 310 -429 688 -498 1115 -57 347 -41 742 40 1016 149 500 461 926 885
1207 218 144 487 258 740 313 118 25 338 50 450 50 136 0 280 48 371 123 75
62 146 179 185 307 33 106 33 255 0 360 -58 187 -189 335 -372 419 -135 62 48
59 -2979 63 -2669 3 -2767 2 -2825 -16 -188 -58 -329 -197 -396 -392 -21 -59
-24 -88 -24 -199 0 -111 3 -140 24 -200 33 -97 74 -167 140 -238 115 -124 243
-193 409 -218 45 -7 82 -16 82 -21 0 -4 30 -8 68 -8 144 0 383 -43 560 -101
812 -267 1379 -980 1463 -1841 41 -420 -60 -878 -274 -1250 -332 -575 -898
-958 -1556 -1054 -91 -14 -254 -16 -1171 -15 -586 1 -1114 6 -1175 11 -316 28
-600 118 -880 280 -623 360 -1042 1021 -1105 1740 -28 329 0 590 96 880 102
309 259 563 499 808 113 117 272 259 279 251 2 -2 20 -47 41 -99 184 -467 367
-780 657 -1126 37 -45 68 -84 68 -88 0 -4 -23 -37 -51 -73 -203 -265 -180
-639 54 -875 116 -118 218 -167 422 -204 79 -15 179 -16 810 -15 881 3 1130
11 1235 41 214 61 364 204 436 415 23 67 27 98 28 185 1 122 -23 214 -81 319
-44 79 -149 186 -223 228 -66 37 -195 79 -268 88 -79 9 -535 135 -702 193
-407 143 -862 557 -1098 1002 -116 218 -192 443 -239 715 -13 77 -17 157 -17
350 0 231 2 261 27 388 114 580 445 1068 929 1369 229 142 543 250 808 277 76
8 5286 4 5635 -3z"/>
</g>
</svg>
