<?xml version="1.0" standalone="no"?>
<!DOCTYPE svg PUBLIC "-//W3C//DTD SVG 20010904//EN"
 "http://www.w3.org/TR/2001/REC-SVG-20010904/DTD/svg10.dtd">
<svg version="1.0" xmlns="http://www.w3.org/2000/svg"
 width="200.000000pt" height="200.000000pt" viewBox="0 0 200.000000 200.000000"
 preserveAspectRatio="xMidYMid meet">
<metadata>
Created by potrace 1.16, written by Peter Selinger 2001-2019
</metadata>
<g transform="translate(0.000000,200.000000) scale(0.100000,-0.100000)"
fill="#ff3c00" stroke="none">
<path d="M775 1885 c-337 -88 -584 -340 -665 -677 -27 -114 -27 -302 0 -416
82 -342 340 -600 682 -682 114 -27 302 -27 416 0 342 82 600 340 682 682 27
114 27 302 0 416 -82 342 -340 600 -682 682 -122 29 -312 27 -433 -5z m510
-201 c67 -18 163 -80 208 -136 20 -24 49 -71 64 -104 25 -53 28 -70 28 -164 0
-94 -3 -111 -27 -159 -25 -50 -25 -55 -11 -89 57 -136 23 -309 -80 -414 -45
-45 -376 -261 -462 -300 -43 -20 -66 -23 -160 -23 -103 0 -114 2 -178 32 -178
85 -281 271 -248 449 7 37 21 84 32 105 19 39 19 39 -2 101 -44 130 -12 281
81 382 44 47 383 271 468 308 84 37 181 41 287 12z"/>
<path d="M1090 1524 c-25 -8 -130 -70 -235 -137 -164 -106 -194 -129 -220
-172 -26 -41 -30 -58 -30 -114 1 -132 96 -234 230 -248 68 -7 110 7 214 74 47
29 95 53 107 53 13 0 35 -11 50 -23 33 -29 37 -79 8 -106 -10 -10 -95 -66
-187 -125 -117 -74 -177 -106 -198 -106 -37 0 -79 39 -79 74 0 19 -7 26 -29
31 -16 3 -50 19 -75 35 l-46 29 -7 -27 c-15 -54 -6 -119 23 -172 47 -86 125
-132 225 -132 74 0 106 15 319 154 204 132 231 162 238 258 10 143 -85 254
-228 267 -73 7 -111 -6 -218 -73 -47 -30 -92 -54 -99 -54 -28 0 -73 31 -79 55
-14 56 -1 69 188 189 196 125 226 136 265 94 12 -13 23 -34 25 -47 2 -17 13
-28 40 -37 20 -7 54 -24 75 -38 l38 -26 7 22 c34 122 -48 265 -173 302 -63 19
-90 19 -149 0z"/>
</g>
</svg>
